<svg width="107.000000" height="45.000000" viewBox="0 0 107 45" fill="none" xmlns="http://www.w3.org/2000/svg" xmlns:xlink="http://www.w3.org/1999/xlink">
	<desc>
			Created with Pixso.
	</desc>
	<defs/>
	<path id="logo" d="M41.75 0.92Q39.81 -0.11 37.33 -0.11Q34.8 -0.11 32.86 0.95Q31.88 1.49 31.05 2.29Q30.05 3.26 29.45 4.43Q28.56 6.17 28.56 8.36Q28.56 10.4 29.36 12.05Q29.97 13.29 31.03 14.31Q31.92 15.17 32.97 15.71Q34.83 16.68 37.2 16.68Q39.9 16.68 41.96 15.53Q42.85 15.03 43.63 14.31Q44.74 13.27 45.37 11.99Q46.17 10.35 46.17 8.32Q46.17 6.28 45.38 4.63Q44.76 3.35 43.65 2.29Q42.77 1.46 41.75 0.92ZM3.07 8.55L4.85 9.63Q6.9 10.89 7 12.31Q7.01 12.38 7.01 12.46Q7.01 12.88 6.86 13.24Q6.68 13.67 6.28 14Q6.12 14.13 5.95 14.24Q5.31 14.62 4.44 14.62Q3.84 14.62 3.26 14.48Q1.49 14.04 0.05 12.22L0.05 15.19Q1.17 16.03 2.43 16.4Q3.41 16.68 4.47 16.68Q6.11 16.68 7.28 15.93Q7.61 15.72 7.9 15.45Q8.37 15 8.68 14.46Q9.21 13.51 9.21 12.25Q9.21 11.5 8.99 10.82Q8.39 9 6.21 7.71L4.42 6.65Q3.21 5.95 2.67 5.3Q2.26 4.81 2.16 4.26Q2.14 4.09 2.14 3.92Q2.14 3.59 2.25 3.31Q2.42 2.88 2.87 2.56Q3.61 2.02 4.76 2.02Q5.14 2.02 5.51 2.08Q7.13 2.34 8.57 3.72L8.57 1.06Q7.69 0.47 6.72 0.18Q5.8 -0.09 4.81 -0.09Q3.05 -0.09 1.83 0.72Q1.56 0.9 1.32 1.12Q0.79 1.6 0.47 2.19Q-0.02 3.09 -0.02 4.26Q-0.02 5.1 0.28 5.81Q0.44 6.19 0.69 6.54Q1.4 7.53 3.07 8.55ZM48.92 0.1L48.92 16.5L51.27 16.5L51.27 9.39L53.01 9.39Q55.33 9.39 56.57 8.9Q57.25 8.62 57.78 8.16Q58.21 7.79 58.53 7.3Q58.7 7.03 58.83 6.74Q59.24 5.85 59.24 4.76Q59.24 3.3 58.59 2.25Q58.28 1.76 57.85 1.37Q57.69 1.23 57.52 1.1Q56.19 0.1 54.11 0.1L48.92 0.1ZM25.68 0.12L23.33 0.12L23.33 7.2L14.14 7.2L14.14 0.12L11.79 0.12L11.79 16.5L14.14 16.5L14.14 9.37L23.33 9.37L23.33 16.5L25.68 16.5L25.68 0.12ZM34.02 2.95Q35.48 2.12 37.42 2.12Q38.97 2.12 40.24 2.72Q41.16 3.15 41.93 3.89Q42.79 4.72 43.24 5.74Q43.76 6.89 43.76 8.27Q43.76 9.79 43.17 11.02Q42.72 11.96 41.93 12.73Q41.22 13.42 40.39 13.84Q39.04 14.53 37.35 14.53Q35.61 14.53 34.25 13.82Q33.47 13.41 32.8 12.77Q32.03 12.02 31.59 11.12Q30.99 9.89 30.99 8.36Q30.99 6.65 31.7 5.31Q32.13 4.53 32.8 3.87Q33.36 3.33 34.02 2.95ZM51.27 2.19L53.7 2.19Q55.58 2.19 56.33 3.11Q56.82 3.71 56.82 4.71Q56.82 5.68 56.35 6.31Q56.21 6.48 56.04 6.63Q55.27 7.31 53.84 7.31L51.27 7.31L51.27 2.19ZM15.29 42.22Q15.87 41.23 15.87 39.89Q15.87 38.54 15.24 37.61Q15.13 37.45 15 37.29Q14.12 36.29 12.46 35.64Q12.99 35.44 13.51 34.95Q14.03 34.46 14.38 33.71Q14.44 33.59 14.48 33.47Q14.73 32.82 14.73 32.06Q14.73 31.4 14.52 30.83Q14.46 30.69 14.39 30.55Q14.38 30.52 14.37 30.5Q14.03 29.84 13.36 29.35Q12.67 28.84 11.54 28.55Q10.41 28.25 8.89 28.25L1.03 28.25L1.03 44.5L10.42 44.5Q13 44.5 14.43 43.24Q14.95 42.79 15.29 42.22ZM31.14 44.5L36.16 44.5L29 28.25L23.58 28.25L16.4 44.5L21.41 44.5L22.76 41.2L29.82 41.2L31.14 44.5ZM49.42 44.5L55.4 44.5L48.37 35.86L54.41 28.25L49.09 28.25L43.21 35.52L43.21 28.25L38.31 28.25L38.31 44.5L43.21 44.5L43.21 36.89L49.42 44.5ZM57.53 44.5L69.78 44.5L69.78 41.23L62.43 41.23L62.43 37.76L69.25 37.76L69.25 34.49L62.43 34.49L62.43 31.51L69.58 31.51L69.58 28.25L57.53 28.25L57.53 44.5ZM83.52 44.5L88.78 44.5L87.14 40.97Q86.26 39.06 85.75 38.43Q85.25 37.8 84.46 37.35Q85.12 37 85.64 36.61Q86.17 36.22 86.65 35.37Q87.12 34.52 87.12 33.29Q87.12 32.24 86.55 31.07L86.55 31.06Q85.98 29.89 84.69 29.07Q83.41 28.25 81.39 28.25L73.06 28.25L73.06 44.5L77.96 44.5L77.96 38.16L78.51 38.16Q79.35 38.16 79.88 38.36Q80.42 38.57 80.98 39.3Q81.54 40.03 82.25 41.61L83.52 44.5ZM99.8 37.05L106.16 28.25L100.97 28.25L97.23 33.36L93.51 28.25L88.42 28.25L94.9 37.15L94.9 44.5L99.8 44.5L99.8 37.05ZM9.71 31.6Q10.15 32.04 10.15 32.93Q10.15 33.85 9.69 34.29Q9.57 34.4 9.41 34.49Q8.66 34.87 6.99 34.87L5.93 34.87L5.93 30.98L6.96 30.98Q8.6 30.98 9.38 31.37Q9.57 31.46 9.71 31.6ZM81.7 32.07Q82.13 32.53 82.13 33.39Q82.13 34.32 81.66 34.75Q81.57 34.83 81.47 34.89Q80.8 35.28 79.01 35.28L77.96 35.28L77.96 31.37L78.99 31.37Q80.65 31.37 81.39 31.82Q81.57 31.92 81.7 32.07ZM26.31 32.45L28.69 38.38L23.91 38.38L26.31 32.45ZM10.63 38.56Q10.95 39.02 10.95 39.69Q10.95 40.35 10.64 40.81Q9.98 41.76 7.92 41.76L5.93 41.76L5.93 37.6L7.92 37.6Q9.97 37.6 10.63 38.56Z" fill="#FAF4EA" fill-opacity="1.000000" fill-rule="evenodd"/>
</svg>
